<?xml version="1.0" encoding="utf-8"?>
<svg version="1.0" id="Layer_1" xmlns="http://www.w3.org/2000/svg" xmlns:xlink="http://www.w3.org/1999/xlink" x="0px" y="0px"
	 viewBox="0 0 120.2 150.6" style="enable-background:new 0 0 120.2 150.6;" xml:space="preserve">
<path id="XMLID_180_" style="stroke:#000000;stroke-width:2;stroke-miterlimit:10;" d="M85.4,46.5C83.7,30.7,73.7,25,58.3,25
	c-11.4,0-23,4.5-23,15.1c0,5.4,2.2,8.8,10,11.8c11.2,4.4,42,11.1,54.7,18.4c11.6,6.4,19.3,17.5,19.3,34.7
	c-0.1,30.6-25.1,44.7-58.3,44.6c-34-0.1-58.3-16.4-59.8-50l29.2-1.3c1.1,19,13.5,26.8,31.3,26.9c13,0,28-5.5,28.1-18.5
	c0-8.4-5.8-13.2-17.5-16.7c-13.4-3.8-42.8-11.1-52.7-19.6C10.8,63.2,6.2,54.6,6.2,42C6.3,16.8,29.4,0.9,59,1
	c32.8,0.1,55.7,15.2,56.1,44.8L85.4,46.5z"/>
</svg>
